<svg xmlns="http://www.w3.org/2000/svg" width="31.503" height="30.706" viewBox="0 0 31.503 30.706">
  <path id="Icon_awesome-arrow-right" data-name="Icon awesome-arrow-right" d="M18.109,4.7,16.548,3.143a1.681,1.681,0,0,0-2.384,0L.5,16.8a1.681,1.681,0,0,0,0,2.384L14.164,32.857a1.681,1.681,0,0,0,2.384,0L18.109,31.3a1.689,1.689,0,0,0-.028-2.412L9.608,20.813H29.816A1.683,1.683,0,0,0,31.5,19.125v-2.25a1.683,1.683,0,0,0-1.687-1.688H9.608l8.473-8.072A1.677,1.677,0,0,0,18.109,4.7Z" transform="translate(0 -2.647)" fill="red"/>
</svg>
